<?xml version="1.0" encoding="UTF-8" standalone="no"?>
<svg
   t="1692456436439"
   class="icon"
   viewBox="0 0 1024 1024"
   version="1.1"
   p-id="2331"
   width="200"
   height="200"
   id="svg1"
   sodipodi:docname="图书归还.svg"
   inkscape:version="1.3 (0e150ed6c4, 2023-07-21)"
   xmlns:inkscape="http://www.inkscape.org/namespaces/inkscape"
   xmlns:sodipodi="http://sodipodi.sourceforge.net/DTD/sodipodi-0.dtd"
   xmlns="http://www.w3.org/2000/svg"
   xmlns:svg="http://www.w3.org/2000/svg">
  <defs
     id="defs1" />
  <sodipodi:namedview
     id="namedview1"
     pagecolor="#ffffff"
     bordercolor="#000000"
     borderopacity="0.25"
     inkscape:showpageshadow="2"
     inkscape:pageopacity="0.0"
     inkscape:pagecheckerboard="0"
     inkscape:deskcolor="#d1d1d1"
     inkscape:zoom="6.105"
     inkscape:cx="99.9181"
     inkscape:cy="100"
     inkscape:window-width="2560"
     inkscape:window-height="1494"
     inkscape:window-x="-11"
     inkscape:window-y="-11"
     inkscape:window-maximized="1"
     inkscape:current-layer="svg1" />
  <path
     d="M728.91418005 90.125H298.60168005v520.31250027a22.96875037 22.96875037 0 0 1-46.87500009 0V96.21875037a131.71875018 131.71875018 0 0 0-93.75000018 126.0937499v591.0937501A119.06250019 119.06250019 0 0 0 277.03917996 933.875h587.81250028V226.06250018a135.93750019 135.93750019 0 0 0-135.93750019-135.93750018zM427.97667978 200.75000018h315.93749991a22.03125018 22.03125018 0 0 1 22.50000027 22.49999945 22.50000027 22.50000027 0 0 1-22.50000027 22.50000028H427.97667978a22.50000027 22.50000027 0 0 1-22.50000028-22.50000028 22.03125018 22.03125018 0 0 1 22.50000028-22.49999945z m0 88.59375h281.24999973a22.50000027 22.50000027 0 0 1 0 46.87500009h-281.24999973a22.50000027 22.50000027 0 0 1 0-46.87500009z m0 272.34374963h261.09374991l-35.15624946-34.68750018a24.84374991 24.84374991 0 0 1 0-33.75 24.37499982 24.37499982 0 0 1 34.21874927 0l73.12500028 73.59375037a23.43749963 23.43749963 0 0 1 7.03124972 17.81250019 24.37499982 24.37499982 0 0 1-4.21875 13.59375018l-2.34374963 3.28124982-71.24999991 71.2499999a23.90624973 23.90624973 0 0 1-33.75 0 24.37499982 24.37499982 0 0 1 0-34.21875009l31.40624954-30.93750027H426.10168024a22.50000027 22.50000027 0 0 1-20.62500074-23.90624973 22.50000027 22.50000027 0 0 1 20.62500073-22.03125019z m393.28125018 320.15624992A3.28124982 3.28124982 0 0 1 814.22668023 886.99999991H259.22667978A53.90624982 53.90624982 0 0 1 204.85167987 834.03125027a57.18749963 57.18749963 0 0 1 53.43749972-55.31250009H814.22668023a3.28124982 3.28124982 0 0 1 3.74999992 3.74999991z"
     p-id="2332"
     id="path1"
     style="fill:#f9f9f9" />
</svg>
