<?xml version="1.0" encoding="UTF-8" standalone="no"?>
<svg
   t="1692456351885"
   class="icon"
   viewBox="0 0 1024 1024"
   version="1.1"
   p-id="1586"
   width="200"
   height="200"
   id="svg2"
   sodipodi:docname="我的借阅.svg"
   inkscape:version="1.3 (0e150ed6c4, 2023-07-21)"
   xmlns:inkscape="http://www.inkscape.org/namespaces/inkscape"
   xmlns:sodipodi="http://sodipodi.sourceforge.net/DTD/sodipodi-0.dtd"
   xmlns="http://www.w3.org/2000/svg"
   xmlns:svg="http://www.w3.org/2000/svg">
  <defs
     id="defs2" />
  <sodipodi:namedview
     id="namedview2"
     pagecolor="#ffffff"
     bordercolor="#000000"
     borderopacity="0.25"
     inkscape:showpageshadow="2"
     inkscape:pageopacity="0.0"
     inkscape:pagecheckerboard="0"
     inkscape:deskcolor="#d1d1d1"
     inkscape:zoom="6.105"
     inkscape:cx="99.9181"
     inkscape:cy="100"
     inkscape:window-width="2560"
     inkscape:window-height="1494"
     inkscape:window-x="-11"
     inkscape:window-y="-11"
     inkscape:window-maximized="1"
     inkscape:current-layer="svg2" />
  <path
     d="M751.72100081 576.28571416a226.28571416 226.28571416 0 0 1 38.57142832 3.85714336V143.42857138A85.71428614 85.71428614 0 0 0 704.57814388 62H560.57814388L490.29242942 111.71428614H233.14957278a85.71428614 85.71428614 0 0 0-85.71428613 80.99999999V790.57142862a85.71428614 85.71428614 0 0 0 85.71428613 81h320.14285664A214.28571445 214.28571445 0 0 1 751.72100081 576.28571416zM704.57814388 473.85714307H233.14957278a21.42857109 21.42857109 0 0 1-21.42857197-21.42857198 21.42857109 21.42857109 0 0 1 21.42857197-21.42857109h471.4285711a21.42857109 21.42857109 0 0 1 21.42857109 21.42857109 21.42857109 21.42857109 0 0 1-21.42857109 21.42857198z m-492.85714307-171.4285714a85.71428614 85.71428614 0 0 1 85.71428614-85.71428612h342.85714276a85.71428614 85.71428614 0 0 1 85.71428526 85.71428613v28.71428554h-514.28571416z m226.71428555 261.00000001H221.57814359c-5.57142891 0-9.85714277-9.85714277-9.85714278-21.42857197s4.28571387-21.42857109 9.85714278-21.42857109h216.85714276c5.14285752 0 9.85714277 9.42857138 9.85714278 21.42857109s-4.71428613 21.42857109-9.85714278 21.42857197z"
     p-id="1587"
     id="path1"
     style="fill:#f9f9f9" />
  <path
     d="M747.43528695 619.14285722a171.42857138 171.42857138 0 1 0 171.42857138 171.4285714 171.42857138 171.42857138 0 0 0-171.42857138-171.4285714z m3.85714247 191.99999971a59.57142891 59.57142891 0 0 0-31.71428525 9 58.71428613 58.71428613 0 0 0-27 51.0000003 21.85714248 21.85714248 0 0 1-21.42857198 21.42857109 21.42857109 21.42857109 0 0 1-21.42857109-21.42857109 101.57142832 101.57142832 0 0 1 42.85714307-85.71428614 73.28571416 73.28571416 0 0 1-19.28571504-49.71428525 74.14285693 74.14285693 0 0 1 148.28571475 0 73.71428555 73.71428555 0 0 1-68.57142891 73.71428554zM833.14957219 892.14285693a21.85714248 21.85714248 0 0 1-21.42857108-21.42857109 56.99999971 56.99999971 0 0 0-13.28571476-37.71428555 21.42857109 21.42857109 0 0 1 3.0000006-30.00000058 20.99999971 20.99999971 0 0 1 29.9999997 3.00000058 101.57142832 101.57142832 0 0 1 23.14285752 64.71428555 21.42857109 21.42857109 0 0 1-21.42857197 21.42857109z"
     p-id="1588"
     id="path2"
     style="fill:#f9f9f9" />
</svg>
