<?xml version="1.0" encoding="UTF-8" standalone="no"?>
<svg
   t="1692456400392"
   class="icon"
   viewBox="0 0 1024 1024"
   version="1.1"
   p-id="1866"
   width="200"
   height="200"
   id="svg2"
   sodipodi:docname="借阅记录.svg"
   inkscape:version="1.3 (0e150ed6c4, 2023-07-21)"
   xmlns:inkscape="http://www.inkscape.org/namespaces/inkscape"
   xmlns:sodipodi="http://sodipodi.sourceforge.net/DTD/sodipodi-0.dtd"
   xmlns="http://www.w3.org/2000/svg"
   xmlns:svg="http://www.w3.org/2000/svg">
  <defs
     id="defs2" />
  <sodipodi:namedview
     id="namedview2"
     pagecolor="#ffffff"
     bordercolor="#000000"
     borderopacity="0.25"
     inkscape:showpageshadow="2"
     inkscape:pageopacity="0.0"
     inkscape:pagecheckerboard="0"
     inkscape:deskcolor="#d1d1d1"
     inkscape:zoom="6.105"
     inkscape:cx="99.9181"
     inkscape:cy="100"
     inkscape:window-width="2560"
     inkscape:window-height="1494"
     inkscape:window-x="-11"
     inkscape:window-y="-11"
     inkscape:window-maximized="1"
     inkscape:current-layer="svg2" />
  <path
     d="M757.39521908 572.26785702a212.14285703 212.14285703 0 0 1 36.16071489 3.6160719V166.46428567A80.35714326 80.35714326 0 0 0 713.19879071 90.125H578.19879071L512.30593341 136.73214326H271.23450531a80.35714326 80.35714326 0 0 0-80.35714324 75.93749999V773.16071433a80.35714326 80.35714326 0 0 0 80.35714324 75.9375h300.1339281A200.8928573 200.8928573 0 0 1 757.39521908 572.26785702zM713.19879071 476.24107163H271.23450531a20.0892854 20.0892854 0 0 1-20.08928623-20.08928623 20.0892854 20.0892854 0 0 1 20.08928623-20.0892854h441.9642854a20.0892854 20.0892854 0 0 1 20.08928541 20.0892854 20.0892854 20.0892854 0 0 1-20.08928541 20.08928623z m-462.05357163-160.71428569a80.35714326 80.35714326 0 0 1 80.35714326-80.35714324h321.42857135a80.35714326 80.35714326 0 0 1 80.35714243 80.35714325v26.91964269h-482.14285704z m212.54464353 244.68750001H260.38629044c-5.2232146 0-9.24107135-9.24107135-9.24107135-20.08928622s4.01785675-20.0892854 9.24107135-20.0892854h203.30357217c4.82142892 0 9.24107135 8.83928567 9.24107136 20.0892854s-4.41964325 20.0892854-9.24107136 20.08928622z"
     p-id="1867"
     id="path1"
     style="fill:#f9f9f9" />
  <path
     d="M757.39521908 612.44642864a160.71428567 160.71428567 0 1 0 160.71428569 160.71428569 160.71428567 160.71428567 0 0 0-160.71428569-160.71428569z m84.77678569 183.21428596H753.37736234a20.0892854 20.0892854 0 0 1-20.08928622-20.08928623v-89.1964281a20.0892854 20.0892854 0 0 1 20.08928622-20.08928622 20.0892854 20.0892854 0 0 1 20.0892854 20.08928622v68.70535703h69.1071427a20.0892854 20.0892854 0 0 1 0 40.17857162z"
     p-id="1868"
     id="path2"
     style="fill:#f9f9f9" />
</svg>
