<?xml version="1.0" encoding="UTF-8" standalone="no"?>
<svg
   t="1692456452819"
   class="icon"
   viewBox="0 0 1024 1024"
   version="1.1"
   p-id="2470"
   width="200"
   height="200"
   id="svg1"
   sodipodi:docname="借阅申请.svg"
   inkscape:version="1.3 (0e150ed6c4, 2023-07-21)"
   xmlns:inkscape="http://www.inkscape.org/namespaces/inkscape"
   xmlns:sodipodi="http://sodipodi.sourceforge.net/DTD/sodipodi-0.dtd"
   xmlns="http://www.w3.org/2000/svg"
   xmlns:svg="http://www.w3.org/2000/svg">
  <defs
     id="defs1" />
  <sodipodi:namedview
     id="namedview1"
     pagecolor="#ffffff"
     bordercolor="#000000"
     borderopacity="0.25"
     inkscape:showpageshadow="2"
     inkscape:pageopacity="0.0"
     inkscape:pagecheckerboard="0"
     inkscape:deskcolor="#d1d1d1"
     inkscape:zoom="6.105"
     inkscape:cx="99.9181"
     inkscape:cy="100"
     inkscape:window-width="2560"
     inkscape:window-height="1494"
     inkscape:window-x="-11"
     inkscape:window-y="-11"
     inkscape:window-maximized="1"
     inkscape:current-layer="svg1" />
  <path
     d="M771.10804032 90.125H612.81658276L535.55527609 144.77324142H252.89195968a94.2211052 94.2211052 0 0 0-94.22110518 89.03894431V843.89384402a94.2211052 94.2211052 0 0 0 94.22110518 89.51005015h518.21608064a94.2211052 94.2211052 0 0 0 94.22110518-89.51005015V179.63505014A94.2211052 94.2211052 0 0 0 771.10804032 90.125zM229.33668359 355.82851789a94.2211052 94.2211052 0 0 1 94.2211052-94.22110602h376.88442242a94.2211052 94.2211052 0 0 1 94.2211052 94.22110601v31.56407035h-565.32663282zM771.10804032 641.31846765H252.89195968a23.55527609 23.55527609 0 0 1-23.55527609-23.55527692 23.55527609 23.55527609 0 0 1 23.55527609-23.55527608h518.21608064a23.55527609 23.55527609 0 0 1 23.55527609 23.55527608 23.55527609 23.55527609 0 0 1-23.55527609 23.55527692z m0-98.46105524H252.89195968a23.55527609 23.55527609 0 0 1-23.55527609-23.55527691 23.55527609 23.55527609 0 0 1 23.55527609-23.55527609h518.21608064a23.55527609 23.55527609 0 0 1 23.55527609 23.55527609 23.55527609 23.55527609 0 0 1-23.55527609 23.55527691z m0 197.86432133H252.89195968a23.55527609 23.55527609 0 0 1 0-47.11055302h518.21608064a23.55527609 23.55527609 0 0 1 0 47.11055302z"
     p-id="2471"
     id="path1"
     style="fill:#f9f9f9" />
</svg>
