<?xml version="1.0" encoding="UTF-8" standalone="no"?>
<svg
   t="1692456295656"
   class="icon"
   viewBox="0 0 1024 1024"
   version="1.1"
   p-id="1306"
   width="200"
   height="200"
   id="svg2"
   sodipodi:docname="图书查询.svg"
   inkscape:version="1.3 (0e150ed6c4, 2023-07-21)"
   xmlns:inkscape="http://www.inkscape.org/namespaces/inkscape"
   xmlns:sodipodi="http://sodipodi.sourceforge.net/DTD/sodipodi-0.dtd"
   xmlns="http://www.w3.org/2000/svg"
   xmlns:svg="http://www.w3.org/2000/svg">
  <defs
     id="defs2" />
  <sodipodi:namedview
     id="namedview2"
     pagecolor="#ffffff"
     bordercolor="#000000"
     borderopacity="0.25"
     inkscape:showpageshadow="2"
     inkscape:pageopacity="0.0"
     inkscape:pagecheckerboard="0"
     inkscape:deskcolor="#d1d1d1"
     inkscape:zoom="6.105"
     inkscape:cx="99.9181"
     inkscape:cy="100"
     inkscape:window-width="2560"
     inkscape:window-height="1494"
     inkscape:window-x="-11"
     inkscape:window-y="-11"
     inkscape:window-maximized="1"
     inkscape:current-layer="svg2" />
  <path
     d="M761.09398308 591.0613888a171.40680561 171.40680561 0 1 0 171.40680478 171.4068056 171.40680561 171.40680561 0 0 0-171.40680478-171.4068056z m-23.99695285 214.25850741A71.99085855 71.99085855 0 1 1 808.6593709 732.9005206a71.99085855 71.99085855 0 0 1-71.56234067 73.2764089zM862.65251543 858.88452285a22.28288462 22.28288462 0 0 1-14.99809626 5.99923801 23.13991873 23.13991873 0 0 1-15.42661248-5.99923801l-41.13763275-40.28059945a21.4258505 21.4258505 0 0 1 0-29.99619085 21.4258505 21.4258505 0 0 1 30.42470791 0l39.8520824 39.85208239a21.4258505 21.4258505 0 0 1 1.28555118 30.42470791z"
     p-id="1307"
     id="path1"
     style="fill:#f9f9f9" />
  <path
     d="M226.73326695 818.60392341A48.85093982 48.85093982 0 0 1 177.02529301 770.18150064a51.85055842 51.85055842 0 0 1 48.85093983-50.56500723h326.95848165a214.25850659 214.25850659 0 0 1 208.25926859-165.4075676 147.40985275 147.40985275 0 0 1 19.28326519 2.1425853v-342.81361121A124.26993402 124.26993402 0 0 0 656.10731426 90.125H262.72869583v475.65388559a20.99733344 20.99733344 0 0 1-42.851701 0V95.69572094a120.41328049 120.41328049 0 0 0-85.7034028 115.2710766v540.35995496A108.84332153 108.84332153 0 0 0 243.01691356 861.45562439h324.81589636a202.68854764 202.68854764 0 0 1-14.99809543-42.85170098z m154.26612488-627.34890812h288.82046667a20.14029932 20.14029932 0 0 1 20.56881721 20.56881638 20.56881638 20.56881638 0 0 1-20.56881721 20.56881719H380.99939183a20.56881638 20.56881638 0 0 1-20.56881719-20.56881719 20.14029932 20.14029932 0 0 1 20.56881719-20.56881638z m0 80.98971515h257.11020841a20.56881638 20.56881638 0 0 1-1e-8 42.85170181h-257.1102084a20.56881638 20.56881638 0 0 1 0-42.85170181z m0 80.98971597h149.98095428a20.56881638 20.56881638 0 0 1 20.5688172 20.56881638 20.14029932 20.14029932 0 0 1-20.56881719 20.56881719h-149.98095429a20.14029932 20.14029932 0 0 1-20.5688172-20.56881719 20.56881638 20.56881638 0 0 1 20.5688172-20.56881638z"
     p-id="1308"
     id="path2"
     style="fill:#f9f9f9" />
</svg>
