<?xml version="1.0" encoding="UTF-8" standalone="no"?>
<svg
   t="1692456367416"
   class="icon"
   viewBox="0 0 1198 1024"
   version="1.1"
   p-id="1726"
   width="233.984375"
   height="200"
   id="svg2"
   sodipodi:docname="9.svg"
   inkscape:version="1.3 (0e150ed6c4, 2023-07-21)"
   xmlns:inkscape="http://www.inkscape.org/namespaces/inkscape"
   xmlns:sodipodi="http://sodipodi.sourceforge.net/DTD/sodipodi-0.dtd"
   xmlns="http://www.w3.org/2000/svg"
   xmlns:svg="http://www.w3.org/2000/svg">
  <defs
     id="defs2" />
  <sodipodi:namedview
     id="namedview2"
     pagecolor="#ffffff"
     bordercolor="#000000"
     borderopacity="0.25"
     inkscape:showpageshadow="2"
     inkscape:pageopacity="0.0"
     inkscape:pagecheckerboard="0"
     inkscape:deskcolor="#d1d1d1"
     inkscape:zoom="6.105"
     inkscape:cx="116.95332"
     inkscape:cy="100"
     inkscape:window-width="2560"
     inkscape:window-height="1494"
     inkscape:window-x="-11"
     inkscape:window-y="-11"
     inkscape:window-maximized="1"
     inkscape:current-layer="svg2" />
  <path
     d="M274.916332 522.412551A59.500291 59.500291 0 0 0 305.261481 476.002324a59.500291 59.500291 0 0 0 0-17.255084 33.320163 33.320163 0 0 0 0-7.140035 26.775131 26.775131 0 0 0 0-6.545032v-4.16502a34.510169 34.510169 0 0 0-8.330041-10.11505l-5.950029-5.950029s-3.570017-3.570017-5.950029-4.760023a160.055782 160.055782 0 0 1 43.435212-293.931435A59.500291 59.500291 0 0 0 293.956425 12.495061a275.486345 275.486345 0 0 0-141.015688 452.202208A404.601976 404.601976 0 0 0 0.02499 785.998838a59.500291 59.500291 0 0 0 59.500291 59.50029h12.495061a59.500291 59.500291 0 0 0 44.625218-59.50029 286.196397 286.196397 0 0 1 158.270772-263.586287zM1039.495066 464.697269A275.486345 275.486345 0 0 0 898.479377 12.495061a59.500291 59.500291 0 0 0-26.775131 113.050552 160.055782 160.055782 0 0 1 43.435212 293.931435s-3.570017 3.570017-5.950029 4.760023l-5.950029 5.95003a47.00523 47.00523 0 0 0-10.710052 10.115049v4.16502a26.775131 26.775131 0 0 0 0 6.545032 33.320163 33.320163 0 0 0 0 7.140035 86.870424 86.870424 0 0 0 0 17.255084V476.002324a59.500291 59.500291 0 0 0 30.345148 44.625218 287.981406 287.981406 0 0 1 159.460779 261.801278 59.500291 59.500291 0 0 0 44.030215 59.500291h12.495061a59.500291 59.500291 0 0 0 59.50029-59.500291 402.816967 402.816967 0 0 0-158.865775-317.731551zM684.278331 430.782103a223.721092 223.721092 0 1 0-243.951191-48.195235 223.721092 223.721092 0 0 0 243.951191 48.195235z"
     fill="#666666"
     p-id="1727"
     id="path1"
     style="fill:#f9f9f9" />
  <path
     d="M595.027895 468.267286a437.922138 437.922138 0 0 0-437.922138 438.517142c0 153.51075 875.844277 158.865776 875.844277 0A437.922138 437.922138 0 0 0 595.027895 468.267286z"
     fill="#666666"
     p-id="1728"
     id="path2"
     style="fill:#f9f9f9" />
</svg>
